<?xml version="1.0" encoding="UTF-8"?>
<svg version="1.1" xmlns="http://www.w3.org/2000/svg" width="512" height="512">
<path d="M0 0 C1.3203125 1.2265625 1.3203125 1.2265625 2.3203125 3.2265625 C2.1965625 4.4434375 2.0728125 5.6603125 1.9453125 6.9140625 C1.91833979 10.60257992 2.77312262 12.44783532 5.1953125 15.2265625 C7.49381937 17.31016832 8.72906645 18.16596896 11.8359375 18.484375 C14.42626998 18.39527682 14.42626998 18.39527682 16.890625 17.984375 C21.47796256 18.44163373 23.73956849 22.52884885 26.53125 25.8828125 C31.9654222 33.02374636 36.30019287 40.21217609 40.3203125 48.2265625 C41.30128906 47.70707031 42.28226562 47.18757813 43.29296875 46.65234375 C67.54821426 34.02458159 91.54507064 29.79673724 118.09765625 37.29296875 C130.32081168 41.38536223 140.64563468 47.76944617 150.3203125 56.2265625 C151.33351563 57.09667969 151.33351563 57.09667969 152.3671875 57.984375 C168.86292523 73.22643666 177.23670558 95.45073614 178.4453125 117.5078125 C179.02686099 139.89742947 171.23441623 161.56719131 156.3203125 178.2265625 C155.53140625 179.12117187 154.7425 180.01578125 153.9296875 180.9375 C143.25278053 192.34964308 130.36860445 199.98128748 115.3203125 204.2265625 C114.2375 204.54367188 113.1546875 204.86078125 112.0390625 205.1875 C89.11040589 211.02680741 65.45383382 206.40885407 45.02734375 194.984375 C40.95511972 192.34007368 37.34859583 189.21351346 33.73046875 185.984375 C31.27886387 183.83372169 31.27886387 183.83372169 27.3203125 184.2265625 C25.15503465 186.35217252 25.15503465 186.35217252 23.1328125 189.1640625 C2.14848321 215.84657551 -28.82630401 231.27023777 -62.21191406 235.55126953 C-67.36805432 236.0744941 -72.49888214 236.2571097 -77.6796875 236.2265625 C-78.34484375 236.22382324 -79.01 236.22108398 -79.6953125 236.21826172 C-108.23661706 235.83199898 -138.29950313 225.34827669 -159.6796875 206.2265625 C-160.494375 205.53046875 -161.3090625 204.834375 -162.1484375 204.1171875 C-169.26256189 197.92526442 -176.42766565 191.10459527 -181.6796875 183.2265625 C-184.93087689 184.67969004 -187.30883009 186.52505918 -189.9921875 188.8515625 C-208.5172713 203.77454668 -231.23569338 208.85083775 -254.6796875 207.2265625 C-274.7497481 204.6759841 -291.11545669 196.13903772 -305.6796875 182.2265625 C-306.29457031 181.68644531 -306.90945313 181.14632812 -307.54296875 180.58984375 C-323.27477857 166.23230697 -330.669808 143.65686341 -331.8046875 122.9453125 C-332.44633453 98.24190168 -323.0193266 77.16272012 -306.75 59.08203125 C-291.34962036 42.90854018 -269.83986521 34.33096953 -247.765625 33.05859375 C-229.47266818 32.92680011 -213.72283424 37.63831597 -197.6796875 46.2265625 C-196.34859127 46.89768472 -195.016136 47.56616289 -193.6796875 48.2265625 C-193.27878906 47.42734375 -192.87789062 46.628125 -192.46484375 45.8046875 C-176.78975223 15.52083721 -149.857537 -7.45271223 -117.55078125 -18.265625 C-78.92094422 -30.46936847 -32.58826944 -25.25238194 0 0 Z " fill="#020100" transform="translate(332.6796875,23.7734375)"/>
<path d="M0 0 C5.87036987 3.49486003 10.59931027 8.96428408 12.625 15.5 C13.43326437 23.36647995 13.72539961 31.08053152 8.625 37.5 C3.21468424 43.50829803 -4.00197179 47.79472394 -10.65625 52.296875 C-15.95029566 55.87893832 -21.19376937 59.53233603 -26.4375 63.1875 C-27.39906006 63.85668457 -28.36062012 64.52586914 -29.35131836 65.21533203 C-34.49908572 68.79790272 -39.64346966 72.38527055 -44.78515625 75.9765625 C-45.82599365 76.70270752 -46.86683105 77.42885254 -47.93920898 78.17700195 C-49.93577452 79.56999539 -51.93142423 80.96430267 -53.92602539 82.36010742 C-54.82957764 82.99021729 -55.73312988 83.62032715 -56.6640625 84.26953125 C-57.45506348 84.82229736 -58.24606445 85.37506348 -59.06103516 85.94458008 C-66.73123812 91.1004002 -66.73123812 91.1004002 -72.375 90.5 C-73.72573458 89.86933502 -75.06319655 89.20809175 -76.375 88.5 C-76.92929687 88.933125 -77.48359375 89.36625 -78.0546875 89.8125 C-78.77914063 90.369375 -79.50359375 90.92625 -80.25 91.5 C-80.96929687 92.056875 -81.68859375 92.61375 -82.4296875 93.1875 C-84.375 94.5 -84.375 94.5 -86.375 94.5 C-86.31699219 95.09167969 -86.25898438 95.68335938 -86.19921875 96.29296875 C-86.15410156 97.08316406 -86.10898437 97.87335938 -86.0625 98.6875 C-86.00449219 99.46480469 -85.94648438 100.24210937 -85.88671875 101.04296875 C-86.93612049 106.32355829 -92.11056169 109.17654963 -96.33276367 112.03637695 C-96.96545166 112.45749756 -97.59813965 112.87861816 -98.25 113.3125 C-99.68161464 114.28032606 -101.11256422 115.24913636 -102.54296875 116.21875 C-103.31688965 116.74210937 -104.09081055 117.26546875 -104.88818359 117.8046875 C-108.49676 120.26472624 -112.07222546 122.77130464 -115.65014648 125.27563477 C-170.52188117 163.65227007 -223.20124842 185.76051947 -291.375 174.5 C-296.21016389 173.71227248 -301.04630514 172.93125512 -305.88357544 172.15658569 C-307.9326472 171.82345013 -309.97886003 171.47600172 -312.02514648 171.1262207 C-340.14919368 166.51273992 -361.43507093 174.05796842 -384.25 189.9375 C-386.25899359 191.32124312 -388.2705051 192.70109653 -390.28543091 194.07618713 C-391.52248366 194.9218317 -392.75581237 195.77295719 -393.98483276 196.63023376 C-398.1534959 199.5 -398.1534959 199.5 -400.375 199.5 C-400.32279297 200.37011719 -400.32279297 200.37011719 -400.26953125 201.2578125 C-400.08864534 206.47766318 -400.33931976 210.04766899 -403.375 214.5 C-408.36399286 219.40916898 -411.81621401 220.65115654 -418.66699219 220.67700195 C-419.41842499 220.68357315 -420.16985779 220.69014435 -420.94406128 220.69691467 C-423.43666683 220.71666223 -425.92921205 220.72831443 -428.421875 220.73828125 C-429.27309181 220.74235678 -430.12430862 220.7464323 -431.00131989 220.75063133 C-435.50803892 220.77149985 -440.01472745 220.78579728 -444.52148438 220.79516602 C-449.17321402 220.80622272 -453.82446429 220.84061161 -458.47602463 220.88033772 C-462.05516438 220.90650591 -465.63419005 220.9148581 -469.21341705 220.91844749 C-470.92780031 220.92331418 -472.64217845 220.93493055 -474.3564682 220.95348549 C-476.75983926 220.97787848 -479.16197229 220.97691195 -481.56542969 220.9699707 C-482.62239548 220.98918579 -482.62239548 220.98918579 -483.70071411 221.00878906 C-488.73439644 220.95596302 -491.55847809 219.7412941 -495.375 216.5 C-499.82424537 211.46866184 -499.95089711 207.28586847 -499.89257812 200.88623047 C-499.8995874 199.93592957 -499.90659668 198.98562866 -499.91381836 198.00653076 C-499.93137346 194.87644941 -499.91978601 191.74727747 -499.90625 188.6171875 C-499.90894517 186.43815945 -499.9128278 184.25913258 -499.91784668 182.08010864 C-499.92373799 177.51894655 -499.91518866 172.95809823 -499.89648438 168.39697266 C-499.87366824 162.54789265 -499.88683749 156.69954574 -499.91077423 150.85049248 C-499.92521883 146.35351014 -499.92063278 141.85670205 -499.91026306 137.35971451 C-499.90759349 135.20271849 -499.9108736 133.04570668 -499.92018127 130.8887291 C-499.93032756 127.87705209 -499.91487337 124.86656845 -499.89257812 121.85498047 C-499.90067505 120.96241547 -499.90877197 120.06985046 -499.91711426 119.15023804 C-499.83463886 113.14396734 -499.83463886 113.14396734 -497.53015137 109.91531372 C-495.375 108.5 -495.375 108.5 -492.375 108.5 C-492.4080288 106.39516445 -492.47744546 104.2908757 -492.5625 102.1875 C-492.59730469 101.01574219 -492.63210938 99.84398437 -492.66796875 98.63671875 C-493.0591417 95.31569498 -493.0591417 95.31569498 -495.86328125 93.64453125 C-496.69214844 93.26683594 -497.52101563 92.88914062 -498.375 92.5 C-500.97633768 89.89866232 -499.60509031 82.83837236 -499.61523438 79.30908203 C-499.62489548 77.2720385 -499.65588334 75.23602327 -499.6875 73.19921875 C-499.69265625 71.91144531 -499.6978125 70.62367188 -499.703125 69.296875 C-499.7124707 68.11448242 -499.72181641 66.93208984 -499.73144531 65.71386719 C-499.20303441 60.94948283 -497.11081527 57.75101089 -493.4375 54.75 C-488.71587694 51.28105244 -485.1549935 51.36824026 -479.34667969 51.32299805 C-478.64693527 51.31642685 -477.94719086 51.30985565 -477.22624207 51.30308533 C-474.91645182 51.28341745 -472.60672643 51.27170382 -470.296875 51.26171875 C-469.50515144 51.25764322 -468.71342789 51.2535677 -467.89771271 51.24936867 C-463.70638798 51.22853484 -459.51509572 51.214222 -455.32373047 51.20483398 C-451.00853932 51.19378005 -446.6938653 51.15938456 -442.37885666 51.11966228 C-439.04841189 51.0934394 -435.71808927 51.08513711 -432.38755035 51.08155251 C-430.79762533 51.07670054 -429.20770526 51.06512637 -427.61788177 51.04651451 C-412.02797219 50.87536027 -412.02797219 50.87536027 -405.375 55.5 C-401.08827391 60.88588663 -400.24688535 64.70992335 -400.375 71.5 C-399.95992188 71.13390625 -399.54484375 70.7678125 -399.1171875 70.390625 C-395.81337257 67.48769138 -392.49842913 64.59955352 -389.1484375 61.75 C-387.97382461 60.75015708 -386.79934954 59.75015222 -385.625 58.75 C-385.02171875 58.23622803 -384.4184375 57.72245605 -383.796875 57.19311523 C-380.3723696 54.26088249 -377.01789648 51.27386219 -373.72607422 48.19360352 C-353.55325537 29.31870503 -327.63417794 14.61784723 -299.375 13.5 C-297.71984375 13.40525391 -297.71984375 13.40525391 -296.03125 13.30859375 C-283.87354652 12.85366228 -271.90309278 14.44406147 -259.87133789 15.98901367 C-246.21346063 17.73631584 -232.65467435 18.67679594 -218.875 18.625 C-217.65393555 18.6252417 -216.43287109 18.6254834 -215.17480469 18.62573242 C-208.41375388 18.60384783 -201.67571694 18.46066888 -194.921875 18.16796875 C-194.22553955 18.13920654 -193.5292041 18.11044434 -192.81176758 18.08081055 C-189.44476086 17.94046946 -186.08158319 17.78188019 -182.71679688 17.59228516 C-173.84536357 17.19318769 -165.92822702 17.53394816 -159 23.6875 C-155.16351508 27.29471291 -153.70503181 30.42925373 -152.375 35.5 C-152.375 36.82 -152.375 38.14 -152.375 39.5 C-151.59067093 39.25991211 -150.80634186 39.01982422 -149.99824524 38.77246094 C-68.7272352 13.89706511 -68.7272352 13.89706511 -29.81802368 2.23649597 C-28.09542037 1.71718443 -26.37469589 1.19162051 -24.65536499 0.66157532 C-23.76878204 0.3899205 -22.8821991 0.11826569 -21.96875 -0.16162109 C-21.17227051 -0.40778168 -20.37579102 -0.65394226 -19.55517578 -0.90756226 C-13.30703909 -2.60542168 -5.98872711 -2.61136357 0 0 Z " fill="#FEDCCD" transform="translate(499.375,291.5)"/>
<path d="M0 0 C0.87785156 0.69996094 0.87785156 0.69996094 1.7734375 1.4140625 C4.79836818 3.76649579 4.79836818 3.76649579 8.5859375 3.2890625 C11.7030779 2.53524126 11.7030779 2.53524126 13.8359375 1.6484375 C15.8984375 1.4140625 15.8984375 1.4140625 18.07421875 2.75 C23.82124237 8.23436258 23.82124237 8.23436258 24.05078125 11.7421875 C23.6484375 14.0390625 23.6484375 14.0390625 23.0078125 16.140625 C22.83469774 19.73893889 24.7886917 21.59156474 26.8984375 24.4140625 C47.14861406 52.35321587 55.10064066 83.23398695 50.28515625 117.74609375 C48.3190517 128.61954719 43.78297292 138.57366662 38.8984375 148.4140625 C38.38023437 149.47753906 37.86203125 150.54101562 37.328125 151.63671875 C33.93658687 158.22519856 29.72197051 163.80881512 24.8984375 169.4140625 C24.20878906 170.23777344 23.51914062 171.06148437 22.80859375 171.91015625 C9.65410292 187.15794761 -6.47631778 197.21105797 -25.1015625 204.4140625 C-26.22884766 204.87232422 -26.22884766 204.87232422 -27.37890625 205.33984375 C-48.42696077 213.21771444 -73.8217528 212.91607817 -95.1015625 206.4140625 C-96.31714844 206.05183594 -97.53273438 205.68960938 -98.78515625 205.31640625 C-112.65893235 200.75368167 -124.83244747 193.66174023 -136.1015625 184.4140625 C-137.37773437 183.36798828 -137.37773437 183.36798828 -138.6796875 182.30078125 C-149.85488505 172.68940851 -158.51024028 161.59338637 -165.1015625 148.4140625 C-165.62194092 147.38321533 -165.62194092 147.38321533 -166.15283203 146.33154297 C-179.71716968 119.00004794 -181.53066515 87.4287901 -171.9140625 58.3515625 C-160.42231222 28.47301176 -139.157533 4.10845284 -109.80712891 -9.24316406 C-75.59787485 -24.06093322 -30.72495024 -23.18648661 0 0 Z " fill="#FDDE7C" transform="translate(319.1015625,33.5859375)"/>
<path d="M0 0 C5.87036987 3.49486003 10.59931027 8.96428408 12.625 15.5 C13.43326437 23.36647995 13.72539961 31.08053152 8.625 37.5 C3.21468424 43.50829803 -4.00197179 47.79472394 -10.65625 52.296875 C-15.95029566 55.87893832 -21.19376937 59.53233603 -26.4375 63.1875 C-27.39906006 63.85668457 -28.36062012 64.52586914 -29.35131836 65.21533203 C-34.49908572 68.79790272 -39.64346966 72.38527055 -44.78515625 75.9765625 C-45.82599365 76.70270752 -46.86683105 77.42885254 -47.93920898 78.17700195 C-49.93577452 79.56999539 -51.93142423 80.96430267 -53.92602539 82.36010742 C-54.82957764 82.99021729 -55.73312988 83.62032715 -56.6640625 84.26953125 C-57.45506348 84.82229736 -58.24606445 85.37506348 -59.06103516 85.94458008 C-66.74795275 91.11163557 -66.74795275 91.11163557 -72.375 90.5 C-75.375 88.5 -75.375 88.5 -76.375 85.5 C-77 82.25 -77 82.25 -76.375 78.5 C-73.80089063 75.60586622 -70.58424451 73.63530125 -67.375 71.5 C-66.22106519 70.70412487 -65.06881801 69.90579915 -63.91796875 69.10546875 C-61.23985912 67.24834484 -58.5526126 65.40542422 -55.859375 63.5703125 C-50.31342617 59.78408883 -44.81903452 55.92504045 -39.32470703 52.06445312 C-34.62020176 48.76184541 -29.90183681 45.48130941 -25.1640625 42.2265625 C-24.12709229 41.51201904 -23.09012207 40.79747559 -22.02172852 40.0612793 C-20.0095124 38.67568063 -17.99449647 37.29413664 -15.97631836 35.91723633 C-7.47552414 30.67147412 -7.47552414 30.67147412 -2.75 22.5 C-3.62198588 18.3144678 -4.82969582 16.88765383 -8.375 14.5 C-14.29255534 14.27673719 -19.88827054 16.12092699 -25.375 18.125 C-32.80027637 20.72289396 -40.28718738 22.92736051 -47.875 25 C-55.11337607 26.98426107 -62.2808297 29.04785611 -69.375 31.5 C-77.53501844 34.3205609 -85.81245778 36.61159022 -94.13671875 38.89453125 C-100.28341595 40.59404436 -106.34794702 42.4169268 -112.375 44.5 C-120.48950993 47.30222078 -128.71321069 49.62534802 -136.99609375 51.87695312 C-142.6920019 53.43343654 -148.34296292 55.09425577 -153.97265625 56.875 C-162.18759393 59.47231588 -170.45585702 61.8651239 -178.73852539 64.23605347 C-196.20263898 69.23511539 -196.20263898 69.23511539 -213.54370117 74.64208984 C-218.00280164 76.08883206 -222.47310344 77.35215081 -227 78.5625 C-239.69150964 82.15276408 -247.71876148 88.95376516 -255.578125 99.328125 C-257.71532201 101.91134573 -259.41120036 103.32245796 -262.75 103.9375 C-266.68277936 103.28203677 -268.07052854 101.6855929 -270.375 98.5 C-270.28342384 92.58981556 -268.16600073 89.23648512 -264.3125 85 C-263.81081299 84.43394043 -263.30912598 83.86788086 -262.79223633 83.28466797 C-261.34039095 81.669133 -259.86537595 80.07996715 -258.375 78.5 C-257.70984375 77.79101562 -257.0446875 77.08203125 -256.359375 76.3515625 C-245.48962251 65.90714815 -230.50859729 62.52061095 -216.43798828 58.63378906 C-208.71481352 56.48915341 -201.01971504 54.24487546 -193.32339478 52.00619507 C-190.52159316 51.19376133 -187.71734748 50.39020013 -184.9128418 49.5871582 C-183.17355003 49.08324296 -181.43436857 48.57894679 -179.6953125 48.07421875 C-178.88493027 47.84427216 -178.07454803 47.61432556 -177.23960876 47.37741089 C-172.90588922 46.16869304 -172.90588922 46.16869304 -169.375 43.5 C-168.95833333 40 -168.95833333 40 -169.375 36.5 C-172.99798723 34.08467518 -174.57220441 34.2765934 -178.87719727 34.33642578 C-179.86394943 34.34562546 -179.86394943 34.34562546 -180.87063599 34.35501099 C-182.30456427 34.36933289 -183.73845322 34.38811915 -185.17227364 34.41080093 C-187.47961675 34.44589365 -189.78667503 34.46629466 -192.09422302 34.4826355 C-198.65838707 34.53113494 -205.22218989 34.59982726 -211.78588867 34.69189453 C-232.11092814 34.96702193 -251.78029617 34.20915007 -271.92773438 31.42553711 C-299.15446045 27.75763811 -325.27360743 31.46455938 -347.8125 47.9375 C-352.33940883 51.53312377 -356.6454673 55.34756922 -360.89453125 59.265625 C-363.40333183 61.52552096 -365.98863035 63.64090428 -368.625 65.75 C-374.37582764 70.39960533 -379.73818166 75.41354147 -385.12890625 80.46875 C-395.17820296 89.88724041 -395.17820296 89.88724041 -398.44390869 91.5592804 C-400.93567087 94.06346633 -400.87191037 96.02038393 -400.93614197 99.45785522 C-400.92859642 100.67597397 -400.92859642 100.67597397 -400.92089844 101.91870117 C-400.93640495 103.20682961 -400.93640495 103.20682961 -400.95222473 104.52098083 C-400.98174234 107.36183285 -400.98315378 110.20197518 -400.984375 113.04296875 C-400.99935061 115.0116767 -401.01607644 116.98037206 -401.03448486 118.9490509 C-401.07824011 124.13252324 -401.09817558 129.31582609 -401.11322021 134.49945068 C-401.13276186 139.78814754 -401.17473512 145.07666057 -401.21484375 150.36523438 C-401.2902344 160.74343299 -401.34047223 171.12159064 -401.375 181.5 C-400.65546143 181.01644043 -399.93592285 180.53288086 -399.19458008 180.03466797 C-396.46147879 178.204433 -393.72298344 176.38284669 -390.98071289 174.56640625 C-389.80633152 173.78615014 -388.63404161 173.00273475 -387.46411133 172.21582031 C-354.78625999 150.25270923 -324.82901225 151.94343027 -287.65184021 158.47201538 C-279.8214384 159.82803108 -272.08981875 160.65276088 -264.140625 160.703125 C-263.38902603 160.71027527 -262.63742706 160.71742554 -261.86305237 160.72479248 C-213.480626 161.08024986 -174.80819594 147.31548401 -135.63037109 119.11523438 C-130.70929095 115.59089294 -125.74373425 112.12904766 -120.77514648 108.67211914 C-116.75420121 105.87400439 -112.75274345 103.05753991 -108.796875 100.16796875 C-108.08023682 99.65306885 -107.36359863 99.13816895 -106.62524414 98.60766602 C-105.294593 97.65121622 -103.97266558 96.68245371 -102.66186523 95.69897461 C-98.43049599 92.68914945 -95.5270958 91.93452607 -90.375 92.5 C-87.9375 93.5 -87.9375 93.5 -86.375 95.5 C-85.59680451 100.86090226 -85.59680451 100.86090226 -86.375 103.5 C-89.81253575 107.51152131 -93.88261139 110.40554212 -98.25 113.3125 C-99.68161464 114.28032606 -101.11256422 115.24913636 -102.54296875 116.21875 C-103.31688965 116.74210937 -104.09081055 117.26546875 -104.88818359 117.8046875 C-108.49676 120.26472624 -112.07222546 122.77130464 -115.65014648 125.27563477 C-170.52188117 163.65227007 -223.20124842 185.76051947 -291.375 174.5 C-296.21016389 173.71227248 -301.04630514 172.93125512 -305.88357544 172.15658569 C-307.9326472 171.82345013 -309.97886003 171.47600172 -312.02514648 171.1262207 C-340.14919368 166.51273992 -361.43507093 174.05796842 -384.25 189.9375 C-386.25899359 191.32124312 -388.2705051 192.70109653 -390.28543091 194.07618713 C-391.52248366 194.9218317 -392.75581237 195.77295719 -393.98483276 196.63023376 C-398.1534959 199.5 -398.1534959 199.5 -400.375 199.5 C-400.32279297 200.37011719 -400.32279297 200.37011719 -400.26953125 201.2578125 C-400.08864534 206.47766318 -400.33931976 210.04766899 -403.375 214.5 C-408.36399286 219.40916898 -411.81621401 220.65115654 -418.66699219 220.67700195 C-419.41842499 220.68357315 -420.16985779 220.69014435 -420.94406128 220.69691467 C-423.43666683 220.71666223 -425.92921205 220.72831443 -428.421875 220.73828125 C-429.27309181 220.74235678 -430.12430862 220.7464323 -431.00131989 220.75063133 C-435.50803892 220.77149985 -440.01472745 220.78579728 -444.52148438 220.79516602 C-449.17321402 220.80622272 -453.82446429 220.84061161 -458.47602463 220.88033772 C-462.05516438 220.90650591 -465.63419005 220.9148581 -469.21341705 220.91844749 C-470.92780031 220.92331418 -472.64217845 220.93493055 -474.3564682 220.95348549 C-476.75983926 220.97787848 -479.16197229 220.97691195 -481.56542969 220.9699707 C-482.62239548 220.98918579 -482.62239548 220.98918579 -483.70071411 221.00878906 C-488.73439644 220.95596302 -491.55847809 219.7412941 -495.375 216.5 C-499.82424537 211.46866184 -499.95089711 207.28586847 -499.89257812 200.88623047 C-499.8995874 199.93592957 -499.90659668 198.98562866 -499.91381836 198.00653076 C-499.93137346 194.87644941 -499.91978601 191.74727747 -499.90625 188.6171875 C-499.90894517 186.43815945 -499.9128278 184.25913258 -499.91784668 182.08010864 C-499.92373799 177.51894655 -499.91518866 172.95809823 -499.89648438 168.39697266 C-499.87366824 162.54789265 -499.88683749 156.69954574 -499.91077423 150.85049248 C-499.92521883 146.35351014 -499.92063278 141.85670205 -499.91026306 137.35971451 C-499.90759349 135.20271849 -499.9108736 133.04570668 -499.92018127 130.8887291 C-499.93032756 127.87705209 -499.91487337 124.86656845 -499.89257812 121.85498047 C-499.90067505 120.96241547 -499.90877197 120.06985046 -499.91711426 119.15023804 C-499.83463886 113.14396734 -499.83463886 113.14396734 -497.53015137 109.91531372 C-495.375 108.5 -495.375 108.5 -492.375 108.5 C-492.4080288 106.39516445 -492.47744546 104.2908757 -492.5625 102.1875 C-492.59730469 101.01574219 -492.63210938 99.84398437 -492.66796875 98.63671875 C-493.0591417 95.31569498 -493.0591417 95.31569498 -495.86328125 93.64453125 C-496.69214844 93.26683594 -497.52101563 92.88914062 -498.375 92.5 C-500.97633768 89.89866232 -499.60509031 82.83837236 -499.61523438 79.30908203 C-499.62489548 77.2720385 -499.65588334 75.23602327 -499.6875 73.19921875 C-499.69265625 71.91144531 -499.6978125 70.62367188 -499.703125 69.296875 C-499.7124707 68.11448242 -499.72181641 66.93208984 -499.73144531 65.71386719 C-499.20303441 60.94948283 -497.11081527 57.75101089 -493.4375 54.75 C-488.71587694 51.28105244 -485.1549935 51.36824026 -479.34667969 51.32299805 C-478.64693527 51.31642685 -477.94719086 51.30985565 -477.22624207 51.30308533 C-474.91645182 51.28341745 -472.60672643 51.27170382 -470.296875 51.26171875 C-469.50515144 51.25764322 -468.71342789 51.2535677 -467.89771271 51.24936867 C-463.70638798 51.22853484 -459.51509572 51.214222 -455.32373047 51.20483398 C-451.00853932 51.19378005 -446.6938653 51.15938456 -442.37885666 51.11966228 C-439.04841189 51.0934394 -435.71808927 51.08513711 -432.38755035 51.08155251 C-430.79762533 51.07670054 -429.20770526 51.06512637 -427.61788177 51.04651451 C-412.02797219 50.87536027 -412.02797219 50.87536027 -405.375 55.5 C-401.08827391 60.88588663 -400.24688535 64.70992335 -400.375 71.5 C-399.95992188 71.13390625 -399.54484375 70.7678125 -399.1171875 70.390625 C-395.81337257 67.48769138 -392.49842913 64.59955352 -389.1484375 61.75 C-387.97382461 60.75015708 -386.79934954 59.75015222 -385.625 58.75 C-385.02171875 58.23622803 -384.4184375 57.72245605 -383.796875 57.19311523 C-380.3723696 54.26088249 -377.01789648 51.27386219 -373.72607422 48.19360352 C-353.55325537 29.31870503 -327.63417794 14.61784723 -299.375 13.5 C-297.71984375 13.40525391 -297.71984375 13.40525391 -296.03125 13.30859375 C-283.87354652 12.85366228 -271.90309278 14.44406147 -259.87133789 15.98901367 C-246.21346063 17.73631584 -232.65467435 18.67679594 -218.875 18.625 C-217.65393555 18.6252417 -216.43287109 18.6254834 -215.17480469 18.62573242 C-208.41375388 18.60384783 -201.67571694 18.46066888 -194.921875 18.16796875 C-194.22553955 18.13920654 -193.5292041 18.11044434 -192.81176758 18.08081055 C-189.44476086 17.94046946 -186.08158319 17.78188019 -182.71679688 17.59228516 C-173.84536357 17.19318769 -165.92822702 17.53394816 -159 23.6875 C-155.16351508 27.29471291 -153.70503181 30.42925373 -152.375 35.5 C-152.375 36.82 -152.375 38.14 -152.375 39.5 C-151.59067093 39.25991211 -150.80634186 39.01982422 -149.99824524 38.77246094 C-68.7272352 13.89706511 -68.7272352 13.89706511 -29.81802368 2.23649597 C-28.09542037 1.71718443 -26.37469589 1.19162051 -24.65536499 0.66157532 C-23.76878204 0.3899205 -22.8821991 0.11826569 -21.96875 -0.16162109 C-21.17227051 -0.40778168 -20.37579102 -0.65394226 -19.55517578 -0.90756226 C-13.30703909 -2.60542168 -5.98872711 -2.61136357 0 0 Z " fill="#020102" transform="translate(499.375,291.5)"/>
<path d="M0 0 C0.88204102 0.00894287 1.76408203 0.01788574 2.67285156 0.02709961 C20.70796694 0.34808608 35.43071457 6.55718706 49.125 18.25 C49.77726562 18.79011719 50.42953125 19.33023438 51.1015625 19.88671875 C59.04773255 27.08906923 65.62320004 38.16906071 69.125 48.25 C69.42148437 49.06726563 69.71796875 49.88453125 70.0234375 50.7265625 C74.07645129 63.92674502 73.82030943 80.27661492 69.125 93.25 C68.77308594 94.24 68.42117188 95.23 68.05859375 96.25 C61.24377872 113.88305276 49.19881066 127.89678799 32.125 136.25 C14.4959506 143.47249338 -6.7012684 145.96740403 -24.72265625 138.73046875 C-25.76292969 138.24191406 -26.80320312 137.75335938 -27.875 137.25 C-28.86371094 136.79238281 -29.85242188 136.33476562 -30.87109375 135.86328125 C-39.1987708 131.64746693 -46.37330826 125.91460429 -52.875 119.25 C-51.44847172 114.80059036 -49.78265969 110.50560053 -48 106.1875 C-41.54873155 90.23459228 -38.49231099 75.37235376 -38.5625 58.125 C-38.56332581 57.44701355 -38.56415161 56.7690271 -38.56500244 56.07049561 C-38.59543175 45.19185682 -39.45918571 34.85601397 -41.875 24.25 C-42.08769531 23.23421875 -42.30039062 22.2184375 -42.51953125 21.171875 C-42.94175455 19.19137432 -43.40103922 17.21876017 -43.875 15.25 C-30.08866433 5.83101446 -17.00046451 -0.19504968 0 0 Z " fill="#FCDD7B" transform="translate(422.875,72.75)"/>
<path d="M0 0 C2.06074431 3.77235426 0.21796831 7.855848 -0.875 11.75 C-8.74149533 40.28638997 -4.38677837 70.23116229 7.14941406 96.95214844 C8.24515707 99.59023465 9.14974052 102.27391031 10 105 C-0.28464362 116.50900596 -16.43579856 126.29939842 -32 128 C-55.34751332 129.11995809 -74.18476186 126.10522401 -92 110 C-92.70769531 109.37351562 -93.41539063 108.74703125 -94.14453125 108.1015625 C-102.8080166 99.98472154 -107.92648611 90.03052638 -112 79 C-112.35449219 78.05769531 -112.70898438 77.11539063 -113.07421875 76.14453125 C-118.45903307 57.85433915 -115.03293098 38.18788871 -106.16796875 21.734375 C-96.53099499 4.6840143 -80.69401528 -6.93965754 -62.03515625 -12.30859375 C-40.89583794 -17.12411414 -17.44510564 -13.44476245 0 0 Z " fill="#FCDD7B" transform="translate(132,87)"/>
<path d="M0 0 C22.44 0 44.88 0 68 0 C68 45.54 68 91.08 68 138 C45.56 138 23.12 138 0 138 C-0.02578125 131.40515625 -0.0515625 124.8103125 -0.078125 118.015625 C-0.1032874 113.84110675 -0.12961558 109.66666139 -0.16015625 105.4921875 C-0.20853509 98.86425484 -0.25256302 92.23649084 -0.27099609 85.60839844 C-0.28612482 80.26547126 -0.32050307 74.92298485 -0.36830902 69.5802536 C-0.38316191 67.54052305 -0.39104324 65.50072958 -0.39188385 63.46094513 C-0.3942435 60.60662173 -0.42124214 57.75352641 -0.45410156 54.89941406 C-0.4490712 54.05352722 -0.44404083 53.20764038 -0.43885803 52.33612061 C-0.52338745 47.58163068 -0.52338745 47.58163068 -2.84661865 43.50628662 C-5.01636465 41.83640765 -5.01636465 41.83640765 -8 41 C-8 36.38 -8 31.76 -8 27 C-6.02 26.01 -4.04 25.02 -2 24 C1.59010987 16.81978026 -0.36452043 8.01944944 0 0 Z " fill="#BDD7FA" transform="translate(15,359)"/>
<path d="M0 0 C0.87785156 0.69996094 0.87785156 0.69996094 1.7734375 1.4140625 C4.79836818 3.76649579 4.79836818 3.76649579 8.5859375 3.2890625 C11.7030779 2.53524126 11.7030779 2.53524126 13.8359375 1.6484375 C15.8984375 1.4140625 15.8984375 1.4140625 18.07421875 2.75 C23.82124237 8.23436258 23.82124237 8.23436258 24.05078125 11.7421875 C23.6484375 14.0390625 23.6484375 14.0390625 23.0078125 16.140625 C22.83469774 19.73893889 24.7886917 21.59156474 26.8984375 24.4140625 C47.14861406 52.35321587 55.10064066 83.23398695 50.28515625 117.74609375 C48.3190517 128.61954719 43.78297292 138.57366662 38.8984375 148.4140625 C38.38023437 149.47753906 37.86203125 150.54101562 37.328125 151.63671875 C33.93658687 158.22519856 29.72197051 163.80881512 24.8984375 169.4140625 C24.20878906 170.23777344 23.51914062 171.06148437 22.80859375 171.91015625 C9.65410292 187.15794761 -6.47631778 197.21105797 -25.1015625 204.4140625 C-26.22884766 204.87232422 -26.22884766 204.87232422 -27.37890625 205.33984375 C-48.42696077 213.21771444 -73.8217528 212.91607817 -95.1015625 206.4140625 C-96.31714844 206.05183594 -97.53273438 205.68960938 -98.78515625 205.31640625 C-112.65893235 200.75368167 -124.83244747 193.66174023 -136.1015625 184.4140625 C-137.37773437 183.36798828 -137.37773437 183.36798828 -138.6796875 182.30078125 C-149.85488505 172.68940851 -158.51024028 161.59338637 -165.1015625 148.4140625 C-165.62194092 147.38321533 -165.62194092 147.38321533 -166.15283203 146.33154297 C-179.71716968 119.00004794 -181.53066515 87.4287901 -171.9140625 58.3515625 C-160.42231222 28.47301176 -139.157533 4.10845284 -109.80712891 -9.24316406 C-75.59787485 -24.06093322 -30.72495024 -23.18648661 0 0 Z M-128.1015625 18.4140625 C-128.89691406 19.06632812 -129.69226563 19.71859375 -130.51171875 20.390625 C-145.72233993 33.32082847 -156.33766739 51.06976113 -161.1015625 70.4140625 C-161.39804688 71.45046875 -161.69453125 72.486875 -162 73.5546875 C-168.42138744 98.41547191 -162.99728586 125.68132067 -150.390625 147.71484375 C-137.51894564 169.09444415 -118.3403574 183.80795255 -95.1015625 192.4140625 C-93.34392578 193.06761719 -93.34392578 193.06761719 -91.55078125 193.734375 C-67.00138099 201.27586638 -38.39374792 197.17231908 -15.7421875 185.71484375 C-9.42085381 182.14505506 -3.64879184 178.08748049 1.8984375 173.4140625 C3.09919922 172.43179688 3.09919922 172.43179688 4.32421875 171.4296875 C23.24191378 155.30698629 35.36157873 131.11706573 37.8984375 106.4140625 C38.70494906 94.07092909 38.31139382 82.34457069 34.8984375 70.4140625 C34.64320313 69.37765625 34.38796875 68.34125 34.125 67.2734375 C30.44596281 53.56986779 23.31941053 40.96701291 13.8984375 30.4140625 C13.21265625 29.58648437 12.526875 28.75890625 11.8203125 27.90625 C0.83800938 14.98821719 -13.85345037 5.76651087 -29.7265625 0.0390625 C-30.71015747 -0.31901489 -30.71015747 -0.31901489 -31.71362305 -0.68432617 C-41.76929413 -4.09627003 -51.98202968 -4.93155391 -62.5390625 -4.8359375 C-63.63653809 -4.82844482 -64.73401367 -4.82095215 -65.86474609 -4.81323242 C-89.31574617 -4.50150444 -110.29747605 2.99956043 -128.1015625 18.4140625 Z " fill="#F9BD4E" transform="translate(319.1015625,33.5859375)"/>
<path d="M0 0 C14.82092939 13.25140157 25.44849002 30.73901385 30.20214844 50.04174805 C30.49863281 51.0781543 30.79511719 52.11456055 31.10058594 53.18237305 C37.58115582 78.27228579 31.93656316 105.37924176 19.30371094 127.60424805 C16.3995622 132.48471961 12.95064079 136.78631672 9.20214844 141.04174805 C8.51507813 141.8719043 7.82800781 142.70206055 7.12011719 143.55737305 C-3.86966264 156.46788917 -18.54959638 165.68924806 -34.42285156 171.41674805 C-35.07858154 171.65546631 -35.73431152 171.89418457 -36.40991211 172.14013672 C-59.55932812 179.99485942 -87.18514982 178.50825579 -109.23461914 168.18554688 C-112.48585093 166.58012855 -115.6456867 164.83214197 -118.79785156 163.04174805 C-120.25578125 162.24317383 -120.25578125 162.24317383 -121.74316406 161.4284668 C-145.03593462 147.74481295 -159.39054711 124.73992146 -166.34033203 99.19287109 C-173.00581991 73.28309104 -168.1994638 45.9664271 -154.79785156 23.04174805 C-152.11899243 18.77503523 -149.06334784 14.87515672 -145.79785156 11.04174805 C-145.06695312 10.16131836 -144.33605469 9.28088867 -143.58300781 8.3737793 C-106.85707777 -34.29026246 -41.72775045 -35.76196566 0 0 Z M-131.79785156 17.04174805 C-148.91800215 36.55838059 -154.71241754 59.61892847 -153.79785156 85.04174805 C-152.37807311 105.36087251 -141.08530774 125.73675298 -126.32519531 139.40551758 C-116.22391816 148.18600753 -103.81998596 155.70039195 -90.79785156 159.04174805 C-89.66476563 159.38850586 -88.53167969 159.73526367 -87.36425781 160.0925293 C-65.34484756 165.53306837 -42.08660473 159.93397305 -22.69238281 149.34643555 C-4.32164224 138.20480163 9.67926891 119.92313868 15.68261719 99.2019043 C15.8540625 98.48905273 16.02550781 97.77620117 16.20214844 97.04174805 C16.40453125 96.21545898 16.60691406 95.38916992 16.81542969 94.5378418 C21.556272 71.34964029 17.29583326 47.92835195 4.39746094 28.1394043 C-9.34713876 8.7453339 -28.53693212 -5.02061743 -52.11425781 -9.6027832 C-82.48772918 -12.53383929 -110.08071756 -5.25015521 -131.79785156 17.04174805 Z " fill="#040301" transform="translate(323.7978515625,53.958251953125)"/>
<path d="M0 0 C3.83473284 -0.35671933 5.55342875 -0.29771416 8.8125 1.875 C11.39266816 4.38144907 11.91717964 5.25461673 12.3125 8.8125 C11.92021434 12.81381368 10.68299009 14.05648106 8 17 C5.6875 18.74609375 5.6875 18.74609375 3 20.4375 C-2.52341717 24.01069007 -7.93253445 27.71419597 -13.3125 31.5 C-19.82992258 36.07864828 -26.35568419 40.64445744 -32.90087891 45.18334961 C-34.87095819 46.55231375 -36.83812818 47.92547497 -38.80224609 49.30297852 C-43.01159738 52.25356285 -47.22109534 55.17055465 -51.56640625 57.91796875 C-57.94088625 61.517189 -57.94088625 61.517189 -61.5234375 67.359375 C-61.34899174 69.6753506 -61.34899174 69.6753506 -60.91015625 71.88671875 C-61 74 -61 74 -62.80859375 76.08203125 C-69.79231485 81.56844255 -69.79231485 81.56844255 -74 82 C-74.66 81.34 -75.32 80.68 -76 80 C-81.06218327 79.04084949 -83.63756305 80.11349883 -87.90625 82.9375 C-89.78242751 84.27555692 -91.64637393 85.630873 -93.5 87 C-95.55179649 88.47175415 -97.60388842 89.94309648 -99.65625 91.4140625 C-100.70425781 92.17364258 -101.75226563 92.93322266 -102.83203125 93.71582031 C-107.84523396 97.33045692 -112.92161213 100.85281726 -118 104.375 C-118.96301025 105.044104 -119.92602051 105.71320801 -120.91821289 106.40258789 C-123.61014567 108.2712968 -126.30430901 110.13671755 -129 112 C-130.09030518 112.75434326 -130.09030518 112.75434326 -131.20263672 113.52392578 C-178.06056742 145.80484431 -229.45595048 154.20996042 -285 144 C-319.64966249 137.88244869 -346.89948394 141.70190318 -376.0625 161.875 C-376.90917236 162.47127197 -377.75584473 163.06754395 -378.62817383 163.68188477 C-379.81963013 164.51610962 -379.81963013 164.51610962 -381.03515625 165.3671875 C-381.7506665 165.87362793 -382.46617676 166.38006836 -383.20336914 166.90185547 C-385 168 -385 168 -387 168 C-387 138.96 -387 109.92 -387 80 C-386.67 80 -386.34 80 -386 80 C-386 103.1 -386 126.2 -386 150 C-379.4 145.71 -372.8 141.42 -366 137 C-341.77014822 124.36954535 -317.53813363 125.8563044 -291.5 130.4375 C-287.69912287 131.08925297 -283.89684558 131.73242042 -280.09375 132.37109375 C-279.1950267 132.5224025 -278.29630341 132.67371124 -277.37034607 132.8296051 C-252.52112573 136.93853815 -227.40921598 135.6215855 -203.01806641 129.50585938 C-201.21803399 129.05465357 -199.41207808 128.62723122 -197.60546875 128.203125 C-171.27265142 121.45275345 -148.50153947 107.538663 -126.64501953 91.88427734 C-122.02107081 88.59023671 -117.35214994 85.36101222 -112.6875 82.125 C-110.74337235 80.77360613 -108.79936248 79.42204281 -106.85546875 78.0703125 C-105.40406494 77.06145996 -105.40406494 77.06145996 -103.92333984 76.03222656 C-99.11469838 72.68938945 -94.30741108 69.34460619 -89.5 66 C-87.58333997 64.66665713 -85.6666733 63.3333238 -83.75 62 C-82.80125 61.34 -81.8525 60.68 -80.875 60 C-70.33333333 52.66666667 -59.79166667 45.33333333 -49.25 38 C-48.30036377 37.33935547 -47.35072754 36.67871094 -46.37231445 35.99804688 C-44.46470586 34.67107121 -42.55699181 33.34424711 -40.64916992 32.01757812 C-35.71801823 28.588238 -30.78898853 25.15590651 -25.86328125 21.71875 C-6.42183475 8.15965111 -6.42183475 8.15965111 3 2 C2.01 1.34 1.02 0.68 0 0 Z " fill="#FBC8BB" transform="translate(485,305)"/>
<path d="M0 0 C3.78345012 0.94586253 5.21642245 2.4932365 7.5 5.625 C7.91518709 8.43270268 7.74244863 10.76410614 7.5 13.625 C8.17546875 13.79515625 8.8509375 13.9653125 9.546875 14.140625 C19.12803235 16.74359838 19.12803235 16.74359838 21.5 20.625 C21.92213381 24.06237531 22.10856522 26.44590489 20.5 29.5625 C17.31065025 31.25684205 14.03648959 30.99576101 10.5 30.625 C9.51 30.295 8.52 29.965 7.5 29.625 C7.83 38.865 8.16 48.105 8.5 57.625 C11.8 58.945 15.1 60.265 18.5 61.625 C25.24154736 65.97990648 30.2820075 71.85677033 32.5 79.625 C34.26527177 90.94051905 31.79737596 99.33398509 25.5 108.625 C21.27038561 113.54027454 16.62625971 116.58291343 10.5 118.625 C9.51 118.625 8.52 118.625 7.5 118.625 C7.55800781 119.28886719 7.61601562 119.95273438 7.67578125 120.63671875 C7.91212219 125.26224853 8.01034347 127.83628736 5.4375 131.8125 C2.5 133.625 2.5 133.625 -1.125 133.6875 C-4.5 132.625 -4.5 132.625 -6.4375 131.125 C-8.04532609 127.34187979 -7.73381522 123.67779715 -7.5 119.625 C-8.50546875 119.69203125 -9.5109375 119.7590625 -10.546875 119.828125 C-14.91444147 119.60370459 -17.96467717 118.38236817 -21.75 116.375 C-22.36101562 116.07464844 -22.97203125 115.77429688 -23.6015625 115.46484375 C-27.08775056 113.67607913 -29.55340286 112.06421757 -31.5 108.625 C-32.03293835 104.97056561 -31.9753727 103.31977548 -29.875 100.25 C-26.64680775 98.04123688 -25.38280208 97.97786632 -21.5 98.625 C-18.88366025 99.78413786 -16.37786195 101.06093529 -13.8671875 102.43359375 C-11.3146718 103.82681383 -11.3146718 103.82681383 -7.5 104.625 C-7.995 86.31 -7.995 86.31 -8.5 67.625 C-11.14 66.305 -13.78 64.985 -16.5 63.625 C-19.14453125 61.6953125 -19.14453125 61.6953125 -21.3125 59.75 C-22.04082031 59.11320312 -22.76914063 58.47640625 -23.51953125 57.8203125 C-27.89251889 52.97293764 -29.0605288 48.278794 -29 41.875 C-28.99427979 41.17197754 -28.98855957 40.46895508 -28.98266602 39.74462891 C-28.73855554 32.58241111 -26.71035025 27.12652156 -21.8203125 21.79296875 C-17.7412507 18.06742564 -13.18503826 14.625 -7.5 14.625 C-7.55800781 14.03332031 -7.61601562 13.44164063 -7.67578125 12.83203125 C-7.92965446 8.38562337 -7.97736465 6.29331051 -5.3125 2.5625 C-2.5 0.625 -2.5 0.625 0 0 Z " fill="#030301" transform="translate(255.5,62.375)"/>
<path d="M0 0 C4.83445946 1.43243243 4.83445946 1.43243243 6.375 4 C7.0625 7.6875 7.0625 7.6875 7.375 11 C7.91769531 11.18175781 8.46039063 11.36351563 9.01953125 11.55078125 C9.73496094 11.80214844 10.45039062 12.05351563 11.1875 12.3125 C11.89519531 12.55613281 12.60289063 12.79976562 13.33203125 13.05078125 C15.56893941 14.09010952 16.83047354 15.08478719 18.375 17 C19.08041917 21.0561602 18.69620577 22.54252512 16.3125 25.9375 C13.375 28 13.375 28 6.375 27 C6.375 34.26 6.375 41.52 6.375 49 C9.345 49.495 9.345 49.495 12.375 50 C18.58248831 52.80371556 23.10150932 57.05191273 26.33984375 63.0234375 C28.86935031 70.29696202 28.65367782 78.76631756 25.8125 85.9375 C22.35808213 92.33904361 18.45636551 97.46739634 11.5 100 C9.20193671 100.7824646 9.20193671 100.7824646 7.375 102 C6.64157296 104.10805377 6.56517136 105.86983169 6.51953125 108.09375 C6.375 110 6.375 110 4.75 112.5 C1.37873651 114.62921905 -0.71721072 114.62803756 -4.625 114 C-7.0625 111.9375 -7.0625 111.9375 -8.625 109 C-8.875 105.1875 -8.875 105.1875 -8.625 102 C-9.924375 101.938125 -11.22375 101.87625 -12.5625 101.8125 C-17.90030806 101.22128708 -22.39116046 99.32083398 -26.625 96 C-28.5511582 93.04536844 -28.62727602 92.04400305 -28.4375 88.375 C-27.625 85 -27.625 85 -24.625 83 C-19.50163206 82.52561408 -16.84523525 83.1484897 -12.625 86 C-11.305 86.33 -9.985 86.66 -8.625 87 C-8.625 77.43 -8.625 67.86 -8.625 58 C-10.275 57.34 -11.925 56.68 -13.625 56 C-19.95166079 52.30944787 -24.25312459 48.0424847 -26.625 41 C-27.7910807 33.00927856 -26.27644859 26.58582504 -21.625 20 C-17.69910616 15.6546054 -14.53358433 12.83089467 -8.625 12 C-8.728125 10.948125 -8.83125 9.89625 -8.9375 8.8125 C-8.625 5 -8.625 5 -6.5625 2 C-3.625 0 -3.625 0 0 0 Z " fill="#040302" transform="translate(88.625,87)"/>
<path d="M0 0 C2.875 2.125 2.875 2.125 5 5 C5.3125 8.3125 5.3125 8.3125 5 11 C5.62648438 11.19335938 6.25296875 11.38671875 6.8984375 11.5859375 C7.71570313 11.84632812 8.53296875 12.10671875 9.375 12.375 C10.18710937 12.63023438 10.99921875 12.88546875 11.8359375 13.1484375 C14 14 14 14 16 16 C16.54794521 22.90410959 16.54794521 22.90410959 15 26 C13 27 13 27 5 27 C5 34.26 5 41.52 5 49 C7.97 49.99 10.94 50.98 14 52 C20.12845093 56.1877748 23.68187556 60.90202605 26 68 C27.47440127 76.94987435 24.9137349 85.14377517 20.3125 92.8125 C16.16577806 96.7350748 11.43825704 100.18724765 6 102 C5.34171437 104.01240016 5.34171437 104.01240016 5.0625 106.375 C4.20543422 110.7578811 4.20543422 110.7578811 2.25 113.0625 C-0.76585338 114.31910557 -2.76234195 114.47215847 -6 114 C-9.41620723 111.69175187 -9.93366666 110.3316667 -10.75 106.25 C-10.8325 105.1775 -10.915 104.105 -11 103 C-12.134375 102.773125 -13.26875 102.54625 -14.4375 102.3125 C-20.9098217 100.68866128 -27.43583597 97.87238455 -31 92 C-30.87426834 88.9195743 -30.45859649 86.80928792 -28.9375 84.125 C-25.77666883 82.28967868 -22.50995081 82.47006625 -19 83 C-16.25 84.4375 -16.25 84.4375 -14 86 C-12.68 86.33 -11.36 86.66 -10 87 C-10 77.43 -10 67.86 -10 58 C-11.98 57.34 -13.96 56.68 -16 56 C-21.5305044 52.99856968 -25.13882926 49.40599075 -27.37890625 43.4921875 C-29.21953066 36.10653734 -28.67031733 28.70680477 -25 22 C-21.59348463 17.0794778 -18.29342922 14.54868814 -13 12 C-12.01 12 -11.02 12 -10 12 C-10.12375 10.14375 -10.12375 10.14375 -10.25 8.25 C-10.23900334 5.1489408 -10.12081946 4.18587609 -8.375 1.5 C-5.23686002 -0.48198314 -3.65126535 -0.67064058 0 0 Z " fill="#030301" transform="translate(426,87)"/>
<path d="M0 0 C22.57935782 2.48030824 43.4906223 13.91617311 57.75 31.625 C73.05764218 51.4611757 77.48112047 73.80298083 75.76171875 98.41015625 C72.81602302 120.04167945 59.86712946 140.83417509 42.875 154.3125 C30.52334706 163.64369412 15.40115014 169.75797176 0 171 C2.38880424 168.3754585 4.96717102 166.69998721 8 164.875 C30.09811753 150.9797504 44.88420153 130.24254382 50.9375 104.875 C55.15627391 80.06333596 51.18076513 54.82786803 37.0234375 33.77734375 C27.15127969 20.22694954 15.73370069 8.56175075 0 2 C0 1.34 0 0.68 0 0 Z " fill="#FCCE63" transform="translate(266,44)"/>
<path d="M0 0 C13.12284598 2.91927718 25.44835431 8.16674008 36.2199707 16.24267578 C39.309783 18.43422639 40.81542394 19.00947556 44.65234375 18.8125 C47.8320517 18.10243557 47.8320517 18.10243557 50.16796875 17.2265625 C52 17 52 17 54.17578125 18.3359375 C59.92280487 23.82030008 59.92280487 23.82030008 60.15234375 27.328125 C59.75 29.625 59.75 29.625 59.109375 31.7265625 C58.93626024 35.32487639 60.8902542 37.17750224 63 40 C83.25017656 67.93915337 91.20220316 98.81992445 86.38671875 133.33203125 C84.4206142 144.20548469 79.88453542 154.15960412 75 164 C74.48179687 165.06347656 73.96359375 166.12695312 73.4296875 167.22265625 C70.03814937 173.81113606 65.82353301 179.39475262 61 185 C60.31035156 185.82371094 59.62070312 186.64742187 58.91015625 187.49609375 C43.51866411 205.33686492 22.94688158 217.66133775 0 223 C0 222.34 0 221.68 0 221 C0.79921875 220.59910156 1.5984375 220.19820312 2.421875 219.78515625 C18.20038957 211.61810821 31.54459606 200.57677504 43 187 C43.78375 186.0925 44.5675 185.185 45.375 184.25 C47.08589069 182.09289381 47.08589069 182.09289381 47.875 179.6328125 C49.1029197 176.75913931 50.56503866 174.96399993 52.625 172.625 C69.20692163 152.31139364 74.76026167 125.69783141 73 100 C72.45595899 95.21069119 71.32455524 90.6301844 70 86 C69.74476563 84.96359375 69.48953125 83.9271875 69.2265625 82.859375 C65.80502762 70.11494234 59.40297218 58.2192669 50.80859375 48.234375 C49.01079583 46.01333739 47.72547373 43.82462743 46.375 41.3125 C36.05802703 23.55835953 18.00291638 11.00145819 0 2 C0 1.34 0 0.68 0 0 Z " fill="#E7AD42" transform="translate(283,18)"/>
<path d="M0 0 C5.28 0 10.56 0 16 0 C16 45.54 16 91.08 16 138 C10.72 138 5.44 138 0 138 C-0.33 132.06 -0.66 126.12 -1 120 C-1.99 120.495 -1.99 120.495 -3 121 C-6.375 121.375 -6.375 121.375 -10 121 C-12.74057414 118.34751575 -13.88377572 116.60980009 -14.6015625 112.84375 C-14.66245079 104.15702022 -14.66245079 104.15702022 -12.859375 101.0078125 C-11.375 99.625 -11.375 99.625 -8 98 C-4.83341065 98.1217919 -2.8128025 98.59359875 0 100 C0 67 0 34 0 0 Z " fill="#9CC5FA" transform="translate(67,359)"/>
<path d="M0 0 C14.0464023 0.25082861 26.61930333 8.13648207 37 17 C37.65226562 17.54011719 38.30453125 18.08023438 38.9765625 18.63671875 C46.92273255 25.83906923 53.49820004 36.91906071 57 47 C57.44472656 48.22589844 57.44472656 48.22589844 57.8984375 49.4765625 C61.95145129 62.67674502 61.69530943 79.02661492 57 92 C56.64808594 92.99 56.29617188 93.98 55.93359375 95 C49.11117465 112.65272797 37.07295377 126.61802948 20 135 C5.92089484 140.95117775 5.92089484 140.95117775 1 139 C1.82242187 138.46632812 2.64484375 137.93265625 3.4921875 137.3828125 C15.09759738 129.70291592 24.10867735 121.26302031 31 109 C31.46148437 108.18789062 31.92296875 107.37578125 32.3984375 106.5390625 C42.11059601 88.35083839 43.92150123 66.69077519 38 47 C31.63859688 28.45173304 20.96308729 14.3315644 4.65234375 3.7421875 C2 2 2 2 0 0 Z " fill="#FBCD62" transform="translate(435,74)"/>
<path d="M0 0 C2.04246763 3.06370145 3.64136301 6.12626358 5.25 9.4375 C5.81203125 10.57058594 6.3740625 11.70367187 6.953125 12.87109375 C8 16 8 16 7.40625 18.17578125 C-0.80711954 28.83034674 -15.10467444 36.66389587 -28 40 C-31.6875 40.25 -31.6875 40.25 -34 40 C-31.11304029 37.65434524 -28.18299605 35.39128703 -25.1875 33.1875 C-23.78854452 32.1291142 -22.39273629 31.06655641 -21 30 C-20.34773438 29.51015625 -19.69546875 29.0203125 -19.0234375 28.515625 C-10.95790617 22.02463963 -1.49239445 10.44676113 0 0 Z " fill="#F9CC62" transform="translate(134,174)"/>
<path d="M0 0 C2.97353985 1.05725861 4.01145279 1.46500003 5.8125 4 C6.13882361 6.58413022 6.27719974 8.85847049 6.25 11.4375 C6.26933594 12.75621094 6.28867188 14.07492187 6.30859375 15.43359375 C5.8125 19 5.8125 19 4.00390625 21.4375 C0.77485351 23.73985489 -1.3258656 23.62061981 -5.1875 23 C-7.91310515 20.33789462 -9.071699 18.60757929 -9.7890625 14.84375 C-9.84995079 6.15702022 -9.84995079 6.15702022 -8.046875 3.0078125 C-5.46284755 0.60058693 -3.48507202 0 0 0 Z " fill="#060709" transform="translate(62.1875,457)"/>
<path d="M0 0 C11.58986488 0.68175676 23.83880224 5.93955966 33 13 C34.62636042 16.34268972 33.68759021 18.82972577 32.5625 22.25 C32.27503906 23.14203125 31.98757812 24.0340625 31.69140625 24.953125 C31.46324219 25.62859375 31.23507813 26.3040625 31 27 C30.34 27 29.68 27 29 27 C27.625 25.3828125 27.625 25.3828125 26 23.125 C19.21496668 14.227513 12.17897618 7.5794268 2.2734375 2.27734375 C1.52320312 1.85582031 0.77296875 1.43429688 0 1 C0 0.67 0 0.34 0 0 Z " fill="#FACC62" transform="translate(99,74)"/>
<path d="M0 0 C7.46341463 3.73170732 7.46341463 3.73170732 10 9 C11.16353356 15.41130739 9.66826228 20.68476282 6 26 C2.8125 29 2.8125 29 0 29 C0 19.43 0 9.86 0 0 Z " fill="#F9DB7A" transform="translate(263,136)"/>
<path d="M0 0 C4 2 4 2 6 4 C6.73975506 8.78260251 6.79294013 13.4638098 4.125 17.625 C3.42375 18.40875 2.7225 19.1925 2 20 C1.34 20 0.68 20 0 20 C0 13.4 0 6.8 0 0 Z " fill="#ECCF73" transform="translate(95,152)"/>
<path d="M0 0 C0.66 0 1.32 0 2 0 C2 6.6 2 13.2 2 20 C-2 18 -2 18 -4 16 C-4.73975506 11.21739749 -4.79294013 6.5361902 -2.125 2.375 C-1.42375 1.59125 -0.7225 0.8075 0 0 Z " fill="#F2D476" transform="translate(246,93)"/>
<path d="M0 0 C4 2 4 2 6 5 C6.49276868 10.223348 5.7921248 13.55328273 3 18 C2.01 18.66 1.02 19.32 0 20 C0 13.4 0 6.8 0 0 Z " fill="#F7D979" transform="translate(431,152)"/>
<path d="M0 0 C0.33 0 0.66 0 1 0 C1 3.96 1 7.92 1 12 C0.34 12 -0.32 12 -1 12 C-2.11445498 9.77109005 -2.16480286 8.46944894 -2.1875 6 C-2.20167969 5.29875 -2.21585937 4.5975 -2.23046875 3.875 C-2 2 -2 2 0 0 Z " fill="#D8BE6A" transform="translate(415,116)"/>
<path d="M0 0 C0.33 0 0.66 0 1 0 C1 3.96 1 7.92 1 12 C-2 9 -2 9 -2.3125 6 C-2 3 -2 3 0 0 Z " fill="#E2C76F" transform="translate(79,116)"/>
</svg>
